Coordinates
version=1
nRows=23
nColumns=38
inDegrees=no

Units are S.I. units (second, meters, Newtons, ...)
If the header above contains a line with 'inDegrees', this indicates whether rotational values are in degrees (yes) or radians (no).

endheader
time	pelvis_tilt	pelvis_list	pelvis_rotation	pelvis_tx	pelvis_ty	pelvis_tz	hip_flexion_r	hip_adduction_r	hip_rotation_r	knee_angle_r	ankle_angle_r	subtalar_angle_r	mtp_angle_r	hip_flexion_l	hip_adduction_l	hip_rotation_l	knee_angle_l	ankle_angle_l	subtalar_angle_l	mtp_angle_l	lumbar_extension	lumbar_bending	lumbar_rotation	arm_flex_r	arm_add_r	arm_rot_r	elbow_flex_r	pro_sup_r	wrist_flex_r	wrist_dev_r	arm_flex_l	arm_add_l	arm_rot_l	elbow_flex_l	pro_sup_l	wrist_flex_l	wrist_dev_l
1.55	3.03849	1.4316	-1.40823	0.692239	0.800339	0.931888	-0.361172	0.0211466	-0.0884817	0.572882	-0.235756	0	0	0.167162	0.0261982	-0.0689901	0.185314	-0.3817	0	0	-0.357311	0.0811019	0.0551015	-0.284876	-0.451956	0.319893	0.819129	0.95041	0	0	-0.141215	-0.180038	-0.0352116	0.611092	1.5708	0	0
1.56	3.06234	1.43042	-1.42915	0.69022	0.811059	0.933129	-0.352557	0.0113242	-0.090542	0.608535	-0.26365	0	0	0.172253	0.0250547	-0.102545	0.229883	-0.377771	0	0	-0.355106	0.0783413	0.0525629	-0.289432	-0.452043	0.320705	0.818418	0.94552	0	0	-0.144789	-0.180868	-0.0329272	0.612487	1.5708	0	0
1.57	3.08162	1.4297	-1.44411	0.688046	0.821742	0.934203	-0.340936	0.00155436	-0.0949253	0.647448	-0.296344	0	0	0.177631	0.0227232	-0.138274	0.274514	-0.361904	0	0	-0.352169	0.0764009	0.0470913	-0.292535	-0.453464	0.324659	0.818141	0.94222	0	0	-0.150865	-0.181429	-0.0340607	0.616947	1.5708	0	0
1.58	3.10024	1.4294	-1.45693	0.685688	0.83236	0.935075	-0.326553	-0.00817744	-0.0999232	0.689366	-0.332434	0	0	0.181728	0.0202425	-0.172971	0.315602	-0.344564	0	0	-0.348548	0.0750417	0.0403976	-0.29652	-0.455414	0.327834	0.819237	0.940339	0	0	-0.157672	-0.182442	-0.0343913	0.622841	1.5708	0	0
1.59	3.1128	1.42853	-1.46269	0.683282	0.842965	0.935569	-0.310569	-0.016155	-0.103026	0.733166	-0.376349	0	0	0.192007	0.00980499	-0.231806	0.376296	-0.31834	0	0	-0.342688	0.0753343	0.0606531	-0.337335	-0.431912	0.247118	0.826775	0.999926	0	0	-0.142344	-0.213722	0.0862375	0.621076	1.49342	0	0
1.6	3.13668	1.42941	-1.47925	0.680661	0.853067	0.936265	-0.289475	-0.0266836	-0.107501	0.778821	-0.430107	0	0	0.182938	0.0163229	-0.229962	0.38107	-0.30708	0	0	-0.34065	0.0730444	0.0228433	-0.303825	-0.461951	0.337163	0.825153	0.934023	0	0	-0.173954	-0.18426	-0.037979	0.63948	1.5708	0	0
1.61	-3.12237	1.42812	-1.4969	0.678115	0.862751	0.937014	-0.268081	-0.0377289	-0.112361	0.826655	-0.477479	0	0	0.171013	0.0228622	-0.227982	0.384202	-0.296574	0	0	-0.33985	0.0714804	0.0166069	-0.309842	-0.462884	0.331237	0.829985	0.937395	0	0	-0.178103	-0.185338	-0.0364198	0.645842	1.5708	0	0
1.62	-3.10179	1.42639	-1.51152	0.675659	0.872118	0.937774	-0.245139	-0.0486196	-0.116505	0.875905	-0.516942	0	0	0.158863	0.0282146	-0.227512	0.38786	-0.285979	0	0	-0.340388	0.0704531	0.0111104	-0.315468	-0.464374	0.324884	0.835764	0.941816	0	0	-0.18109	-0.186067	-0.0346329	0.651631	1.5708	0	0
1.63	-3.0862	1.42472	-1.5217	0.673381	0.881154	0.938587	-0.220808	-0.0585765	-0.119008	0.925361	-0.551703	0	0	0.146992	0.0319119	-0.228575	0.391628	-0.275689	0	0	-0.341581	0.0700436	0.00736427	-0.320806	-0.465638	0.317877	0.841208	0.946188	0	0	-0.181473	-0.186752	-0.0304782	0.654887	1.5708	0	0
1.64	-3.08997	1.4209	-1.51341	0.671277	0.889748	0.939969	-0.200044	-0.062533	-0.115192	0.966278	-0.585174	0	0	0.132413	0.0316655	-0.231032	0.392798	-0.268391	0	0	-0.345421	0.0727733	0.00640169	-0.324969	-0.46632	0.310098	0.844896	0.947852	0	0	-0.17666	-0.185787	-0.0250078	0.651348	1.5708	0	0
1.65	-3.09105	1.41617	-1.50991	0.669548	0.898136	0.941372	-0.17718	-0.0693029	-0.115413	1.01014	-0.614809	0	0	0.115445	0.0308658	-0.236652	0.389527	-0.265927	0	0	-0.349949	0.0750956	0.00823221	-0.3294	-0.468272	0.304514	0.849666	0.950296	0	0	-0.168466	-0.183056	-0.0215148	0.642261	1.5708	0	0
1.66	3.08603	1.4037	-1.40485	0.666424	0.904172	0.946278	-0.176458	-0.0335407	-0.0537114	0.999101	-0.629434	0	0	0.0922868	0.0146902	-0.232566	0.380339	-0.269338	0	0	-0.37095	0.0974092	0.00614742	-0.306343	-0.476848	0.315578	0.837086	0.955481	0	0	-0.151053	-0.168771	-0.0278922	0.618697	1.5708	0	0
1.67	3.08165	1.40364	-1.40228	0.665214	0.911775	0.947347	-0.142719	-0.0380024	-0.0492813	1.04906	-0.638155	0	0	0.0816047	0.0128065	-0.239108	0.379106	-0.267966	0	0	-0.37306	0.0978472	0.00482917	-0.298809	-0.482091	0.326361	0.836817	0.946816	0	0	-0.147295	-0.165717	-0.0309168	0.614733	1.5708	0	0
1.68	3.07515	1.40379	-1.39762	0.664068	0.919375	0.94837	-0.108926	-0.0425484	-0.0474849	1.09623	-0.631167	0	0	0.0716234	0.0101996	-0.248361	0.37878	-0.264	0	0	-0.374338	0.0986362	0.00295627	-0.290409	-0.487197	0.338062	0.835606	0.940477	0	0	-0.143719	-0.162358	-0.0346821	0.609989	1.5708	0	0
1.69	3.0654	1.40379	-1.38922	0.662961	0.926972	0.949423	-0.0765737	-0.0464738	-0.0478152	1.13817	-0.608562	0	0	0.0613485	0.00707894	-0.25673	0.379071	-0.260297	0	0	-0.374922	0.0999214	0.000600273	-0.281332	-0.491943	0.350933	0.833247	0.932121	0	0	-0.140154	-0.159064	-0.038541	0.604335	1.5708	0	0
1.7	3.05512	1.40348	-1.37986	0.661891	0.934457	0.950483	-0.045683	-0.0502842	-0.0498538	1.17502	-0.57564	0	0	0.0502697	0.00445187	-0.263552	0.377416	-0.256224	0	0	-0.373529	0.101818	0.0246188	-0.308087	-0.473049	0.284388	0.83488	0.977476	0	0	-0.114011	-0.177759	0.0587849	0.584844	1.51782	0	0
1.71	3.04233	1.40507	-1.36764	0.660747	0.941967	0.95139	-0.0134827	-0.0543716	-0.0531067	1.2067	-0.543722	0	0	0.0403745	0.00291572	-0.267288	0.372692	-0.251164	0	0	-0.373444	0.103426	-0.00968048	-0.251727	-0.511461	0.411844	0.827851	0.872849	0	0	-0.135274	-0.151076	-0.0522811	0.593227	1.5708	0	0
1.72	3.13502	1.41059	-1.45266	0.660889	0.952105	0.949213	0.0281606	-0.0964758	-0.102457	1.27199	-0.509322	0	0	0.0285411	0.0169322	-0.270915	0.36799	-0.241403	0	0	-0.357907	0.0858583	-0.0161353	-0.268624	-0.504776	0.401053	0.836955	0.875654	0	0	-0.144719	-0.158722	-0.051207	0.604718	1.5708	0	0
1.73	3.01	1.40869	-1.33519	0.658528	0.95665	0.953115	0.0498635	-0.059089	-0.0551816	1.2527	-0.494585	0	0	0.0171174	0.00316433	-0.254556	0.350551	-0.242789	0	0	-0.368808	0.108691	-0.00769701	-0.244186	-0.510822	0.409329	0.820015	0.879273	0	0	-0.118129	-0.143969	-0.0498748	0.570385	1.5708	0	0
1.74	2.99281	1.40803	-1.31681	0.657404	0.963969	0.954062	0.0770167	-0.0585914	-0.054386	1.26543	-0.481205	0	0	0.00256962	0.00249232	-0.245494	0.338485	-0.239854	0	0	-0.370529	0.112269	-0.00816656	-0.239714	-0.511488	0.408338	0.818157	0.881769	0	0	-0.111884	-0.141404	-0.0491012	0.564557	1.5708	0	0
1.75	2.97888	1.40616	-1.30055	0.656179	0.971339	0.954993	0.101094	-0.0573092	-0.0540836	1.27205	-0.468437	0	0	-0.0135094	0.00205413	-0.234497	0.325881	-0.237487	0	0	-0.373754	0.11611	-0.00929084	-0.236443	-0.512404	0.405788	0.817875	0.885104	0	0	-0.106129	-0.139363	-0.0477044	0.560368	1.5708	0	0
1.76	2.96783	1.40378	-1.28679	0.654904	0.978651	0.955881	0.123301	-0.0563025	-0.0543516	1.27313	-0.454246	0	0	-0.0309297	0.00242227	-0.220097	0.310982	-0.235223	0	0	-0.37688	0.119763	-0.0100083	-0.234291	-0.513136	0.401799	0.817787	0.890137	0	0	-0.0999023	-0.13765	-0.0450816	0.555964	1.5708	0	0
1.77	2.95762	1.40104	-1.27393	0.653668	0.985921	0.956688	0.144173	-0.0558227	-0.0560906	1.2691	-0.447352	0	0	-0.0478092	0.00189849	-0.209528	0.298452	-0.23141	0	0	-0.379787	0.123002	-0.014607	-0.225031	-0.518585	0.415966	0.816539	0.881253	0	0	-0.0976524	-0.135719	-0.0487551	0.555214	1.5708	0	0
